<svg width="20" height="20" viewBox="0 0 20 20" fill="none" xmlns="http://www.w3.org/2000/svg">
<path d="M13.97 5.41667C14.4277 4.90521 15.093 4.58333 15.8334 4.58333C17.2141 4.58333 18.3334 5.70262 18.3334 7.08333C18.3334 8.46404 17.2141 9.58333 15.8334 9.58333H10.8334M5.6366 3.33333C6.09437 2.82188 6.75961 2.5 7.50002 2.5C8.88073 2.5 10 3.61929 10 5C10 6.38071 8.88073 7.5 7.50002 7.5H1.66669M8.96993 16.6667C9.4277 17.1781 10.0929 17.5 10.8334 17.5C12.2141 17.5 13.3334 16.3807 13.3334 15C13.3334 13.6193 12.2141 12.5 10.8334 12.5H1.66669" stroke="#5556FF" stroke-width="2" stroke-linecap="round" stroke-linejoin="round"/>
</svg>
